<?xml version="1.0" encoding="UTF-8" standalone="no"?>
<!-- Created with Inkscape (http://www.inkscape.org/) -->

<svg
   xmlns:dc="http://purl.org/dc/elements/1.1/"
   xmlns:cc="http://creativecommons.org/ns#"
   xmlns:rdf="http://www.w3.org/1999/02/22-rdf-syntax-ns#"
   xmlns:svg="http://www.w3.org/2000/svg"
   xmlns="http://www.w3.org/2000/svg"
   xmlns:sodipodi="http://sodipodi.sourceforge.net/DTD/sodipodi-0.dtd"
   xmlns:inkscape="http://www.inkscape.org/namespaces/inkscape"
   version="1.1"
   id="svg2"
   xml:space="preserve"
   width="1066.6667"
   height="1066.6667"
   viewBox="0 0 1066.6667 1066.6667"
   sodipodi:docname="flamecoin.ai.svg"
   inkscape:export-filename="/home/atomiclemon/Documents/Graphics/set-six-flame-logos/105695-OMLJSE-613.png"
   inkscape:export-xdpi="96"
   inkscape:export-ydpi="96"
   inkscape:version="0.92.4 (5da689c313, 2019-01-14)"><metadata
     id="metadata8"><rdf:RDF><cc:Work
         rdf:about=""><dc:format>image/svg+xml</dc:format><dc:type
           rdf:resource="http://purl.org/dc/dcmitype/StillImage" /><dc:title></dc:title></cc:Work></rdf:RDF></metadata><defs
     id="defs6"><clipPath
       clipPathUnits="userSpaceOnUse"
       id="clipPath20"><path
         d="M 0,800 H 800 V 0 H 0 Z"
         id="path18"
         inkscape:connector-curvature="0" /></clipPath><clipPath
       clipPathUnits="userSpaceOnUse"
       id="clipPath160"><path
         d="M 0,800 H 800 V 0 H 0 Z"
         id="path158"
         inkscape:connector-curvature="0" /></clipPath><clipPath
       clipPathUnits="userSpaceOnUse"
       id="clipPath180"><path
         d="M 0,800 H 800 V 0 H 0 Z"
         id="path178"
         inkscape:connector-curvature="0" /></clipPath><clipPath
       clipPathUnits="userSpaceOnUse"
       id="clipPath198"><path
         d="M 0,800 H 800 V 0 H 0 Z"
         id="path196"
         inkscape:connector-curvature="0" /></clipPath><clipPath
       clipPathUnits="userSpaceOnUse"
       id="clipPath226"><path
         d="M 0,800 H 800 V 0 H 0 Z"
         id="path224"
         inkscape:connector-curvature="0" /></clipPath><clipPath
       clipPathUnits="userSpaceOnUse"
       id="clipPath250"><path
         d="M 0,800 H 800 V 0 H 0 Z"
         id="path248"
         inkscape:connector-curvature="0" /></clipPath><clipPath
       clipPathUnits="userSpaceOnUse"
       id="clipPath270"><path
         d="M 0,800 H 800 V 0 H 0 Z"
         id="path268"
         inkscape:connector-curvature="0" /></clipPath><clipPath
       clipPathUnits="userSpaceOnUse"
       id="clipPath288"><path
         d="M 0,800 H 800 V 0 H 0 Z"
         id="path286"
         inkscape:connector-curvature="0" /></clipPath></defs><sodipodi:namedview
     pagecolor="#ffffff"
     bordercolor="#666666"
     borderopacity="1"
     objecttolerance="10"
     gridtolerance="10"
     guidetolerance="10"
     inkscape:pageopacity="0"
     inkscape:pageshadow="2"
     inkscape:window-width="1366"
     inkscape:window-height="715"
     id="namedview4"
     showgrid="false"
     inkscape:zoom="0.31289473"
     inkscape:cx="520.09526"
     inkscape:cy="534.65719"
     inkscape:window-x="0"
     inkscape:window-y="27"
     inkscape:window-maximized="1"
     inkscape:current-layer="g10" /><g
     id="g10"
     inkscape:groupmode="layer"
     inkscape:label="105695-OMLJSE-613"
     transform="matrix(1.3333333,0,0,-1.3333333,0,1066.6667)"><g
       id="g192"
       transform="matrix(4.6974503,0,0,4.6974503,-2640.5634,-757.42287)"
       inkscape:export-xdpi="96"
       inkscape:export-ydpi="96"><g
         id="g194"
         clip-path="url(#clipPath198)"><g
           id="g200"
           transform="translate(567.6473,247.3127)"><path
             d="m 0,0 c 0,44.575 36.135,80.71 80.71,80.71 44.576,0 80.711,-36.135 80.711,-80.71 0,-44.575 -36.135,-80.71 -80.711,-80.71 C 36.135,-80.71 0,-44.575 0,0"
             style="fill:#3c3c3b;fill-opacity:1;fill-rule:nonzero;stroke:none"
             id="path202"
             inkscape:connector-curvature="0" /></g><g
           id="g204"
           transform="translate(648.3577,321.2787)"><path
             d="m 0,0 c -40.85,0 -73.966,-33.116 -73.966,-73.966 0,-40.85 33.116,-73.966 73.966,-73.966 40.85,0 73.966,33.116 73.966,73.966 C 73.966,-33.116 40.85,0 0,0 m 0,-5 c 38.028,0 68.966,-30.938 68.966,-68.966 0,-38.028 -30.938,-68.966 -68.966,-68.966 -38.028,0 -68.966,30.938 -68.966,68.966 C -68.966,-35.938 -38.028,-5 0,-5"
             style="fill:#f6a416;fill-opacity:1;fill-rule:nonzero;stroke:none"
             id="path206"
             inkscape:connector-curvature="0" /></g><g
           id="g208"
           transform="translate(681.1524,240.7084)"><path
             d="M 0,0 C -27.844,33.663 -21.195,68.156 -21.195,68.156 -66.91,24.104 -46.13,-8.727 -46.13,-8.727 c -14.546,13.298 -5.818,36.156 -5.818,36.156 -28.684,-37.35 -24.37,-61.17 -12.761,-75.693 -0.516,7.532 2.355,16.797 11.041,28.108 0,0 -0.312,-19.948 13.067,-22.356 0,0 -12.164,19.219 14.596,45.006 0,0 -3.892,-20.192 12.407,-39.897 4.962,-5.999 5.491,-12.039 3.846,-17.545 C 3.358,-41.842 17.176,-20.765 0,0"
             style="fill:#f6a416;fill-opacity:1;fill-rule:nonzero;stroke:none"
             id="path210"
             inkscape:connector-curvature="0" /></g></g></g></g></svg>